<svg width="540" height="117" viewBox="0 0 540 117" fill="none" xmlns="http://www.w3.org/2000/svg">
<path d="M478.138 29.2C478.138 28.1778 478.157 27.4222 478.194 26.9333C478.269 26.4 478.437 25.8 478.699 25.1333C479.223 23.9333 480.681 23.3333 483.074 23.3333C485.354 23.3333 486.775 23.9333 487.336 25.1333C487.635 25.8 487.803 26.4 487.841 26.9333C487.915 27.4667 487.953 28.2444 487.953 29.2667V60.1333C487.953 61.7333 488.065 62.7556 488.289 63.2C488.514 63.6 489 63.8 489.748 63.8C490.533 63.8 491.056 63.8444 491.318 63.9333C491.58 63.9778 491.897 64.1556 492.271 64.4667C493.019 65.0444 493.393 66.6222 493.393 69.2C493.393 72 493.019 73.7111 492.271 74.3333C491.299 75.1333 488.981 75.2667 485.317 74.7333C482.438 74.2889 480.569 73.1556 479.709 71.3333C478.662 69.1556 478.138 65.6889 478.138 60.9333V29.2Z" fill="white"/>
<path d="M496.486 45.7333C496.486 44.7111 496.505 43.9556 496.542 43.4667C496.617 42.9333 496.785 42.3333 497.047 41.6667C497.57 40.5111 499.028 39.9333 501.421 39.9333C503.216 39.9333 504.487 40.3111 505.235 41.0667C505.87 41.6889 506.207 42.6444 506.244 43.9333C506.282 44.3778 506.3 45.0222 506.3 45.8667V69.2C506.3 70.2222 506.263 71 506.188 71.5333C506.151 72.0222 505.983 72.6 505.684 73.2667C505.197 74.4222 503.758 75 501.365 75C499.01 75 497.57 74.4 497.047 73.2C496.785 72.5333 496.617 71.9556 496.542 71.4667C496.505 70.9778 496.486 70.2 496.486 69.1333V45.7333ZM505.684 33.4C505.422 34.0222 504.936 34.4667 504.225 34.7333C503.515 35 502.562 35.1333 501.365 35.1333C500.206 35.1333 499.271 35 498.561 34.7333C497.851 34.4667 497.346 34 497.047 33.3333C496.785 32.6667 496.617 32.0889 496.542 31.6C496.505 31.0667 496.486 30.2889 496.486 29.2667C496.486 28.2444 496.505 27.4889 496.542 27C496.617 26.4667 496.785 25.8889 497.047 25.2667C497.57 24.0667 499.028 23.4667 501.421 23.4667C503.777 23.4667 505.197 24.0667 505.684 25.2667C505.983 25.9333 506.151 26.5333 506.188 27.0667C506.263 27.5556 506.3 28.3111 506.3 29.3333C506.3 30.3556 506.263 31.1333 506.188 31.6667C506.151 32.1556 505.983 32.7333 505.684 33.4Z" fill="white"/>
<path d="M525.531 63.2667H535.121C536.616 63.2667 537.682 63.4889 538.318 63.9333C538.991 64.3778 539.439 65.0222 539.663 65.8667C539.888 66.7111 540 67.8222 540 69.2C540 70.5778 539.888 71.6889 539.663 72.5333C539.439 73.3778 539.047 73.9778 538.486 74.3333C537.925 74.6444 537.42 74.8444 536.972 74.9333C536.56 74.9778 535.925 75 535.065 75H514.819C513.51 75 512.37 74.4222 511.397 73.2667C510.425 72.1111 509.939 70.7333 509.939 69.1333C509.939 67.5333 510.425 66.1778 511.397 65.0667C512.37 63.9111 513.865 62.2667 515.884 60.1333C517.903 58 519.735 56.0889 521.38 54.4C523.025 52.6667 523.923 51.7111 524.072 51.5333H516.165C514.033 51.5333 512.687 51.1111 512.127 50.2667C511.491 49.2889 511.173 48 511.173 46.4C511.173 44.8 511.267 43.6222 511.454 42.8667C511.641 42.0667 511.865 41.4889 512.127 41.1333C512.388 40.7333 512.762 40.4222 513.248 40.2C513.884 39.9778 514.856 39.8667 516.165 39.8667H534.392C535.7 39.8667 536.841 40.4222 537.813 41.5333C538.785 42.6444 539.271 44.0444 539.271 45.7333C539.271 47.3778 538.71 48.8444 537.588 50.1333C536.467 51.4222 532.447 55.8 525.531 63.2667Z" fill="white"/>
<path d="M356.853 92.7778C358.037 96.037 359.283 98.4815 360.592 100.111C361.963 101.815 363.24 102.667 364.424 102.667C365.608 102.667 366.45 102.704 366.948 102.778C367.509 102.852 368.101 103.111 368.724 103.556C369.41 104 369.877 104.741 370.126 105.778C370.438 106.815 370.594 108.185 370.594 109.889C370.594 111.593 370.438 112.926 370.126 113.889C369.877 114.926 369.41 115.667 368.724 116.111C367.665 116.704 366.263 117 364.518 117C360.281 117 356.448 115.222 353.021 111.667C349.656 108.185 346.976 103.667 344.982 98.1111C340.932 86.7037 338.907 74.4815 338.907 61.4444C338.907 48.4815 340.838 36.3333 344.702 25C346.696 19.2222 349.407 14.5556 352.834 11C356.261 7.37037 360.187 5.55556 364.611 5.55556C366.481 5.55556 367.821 5.81482 368.631 6.33334C369.939 7.2963 370.594 9.44444 370.594 12.7778C370.594 16.2593 370.033 18.3333 368.911 19C368.039 19.5926 366.761 19.8889 365.079 19.8889H364.518C362.088 19.8889 359.595 23.1852 357.04 29.7778C355.856 32.963 354.859 37.3333 354.049 42.8889C353.301 48.3704 352.927 54.5185 352.927 61.3333C352.927 68.1482 353.301 74.2963 354.049 79.7778C354.797 85.2593 355.732 89.5926 356.853 92.7778Z" fill="white"/>
<path d="M421.049 10.2222C422.482 10.2222 423.542 10.2963 424.227 10.4444C424.975 10.5185 425.785 10.8519 426.657 11.4444C427.592 12.037 428.246 13.037 428.62 14.4444C428.994 15.8518 429.181 17.7407 429.181 20.1111C429.181 22.4815 428.994 24.3704 428.62 25.7778C428.246 27.1852 427.592 28.1852 426.657 28.7778C425.723 29.2963 424.881 29.6296 424.134 29.7778C423.448 29.8518 422.358 29.8889 420.862 29.8889H392.259V41.1111H410.674C412.169 41.1111 413.26 41.1852 413.945 41.3333C414.693 41.4074 415.534 41.7407 416.469 42.3333C418.089 43.4444 418.899 46.3704 418.899 51.1111C418.899 56.2963 417.715 59.3704 415.347 60.3333C414.35 60.7037 412.761 60.8889 410.58 60.8889H392.259V81.8889C392.259 83.6667 392.197 84.963 392.073 85.7778C392.01 86.5926 391.73 87.5556 391.231 88.6667C390.359 90.6667 387.929 91.6667 383.94 91.6667C379.578 91.6667 377.023 90.2593 376.276 87.4444C375.902 86.2593 375.715 84.3704 375.715 81.7778V20C375.715 16.2222 376.307 13.6667 377.491 12.3333C378.675 10.9259 380.918 10.2222 384.221 10.2222H421.049Z" fill="white"/>
<path d="M434.67 103.556C435.355 103.111 435.947 102.852 436.446 102.778C437.006 102.704 437.879 102.667 439.063 102.667C440.247 102.667 441.493 101.815 442.802 100.111C444.173 98.4815 445.45 96.037 446.634 92.7778C449.251 85.4444 450.56 74.9259 450.56 61.2222C450.56 54.4815 450.155 48.3704 449.345 42.8889C448.597 37.3333 447.631 32.963 446.447 29.7778C443.892 23.1852 441.4 19.8889 438.969 19.8889H438.409C436.726 19.8889 435.511 19.6667 434.763 19.2222C433.517 18.4074 432.894 16.3704 432.894 13.1111C432.894 9.77778 433.392 7.7037 434.389 6.88889C435.386 6 436.882 5.55556 438.876 5.55556C443.3 5.55556 447.226 7.37037 450.653 11C454.081 14.5556 456.791 19.2222 458.785 25C462.649 36.3333 464.581 48.4815 464.581 61.4444C464.581 74.4815 462.556 86.7037 458.505 98.1111C456.511 103.667 453.8 108.185 450.373 111.667C447.008 115.222 443.207 117 438.969 117C435.791 117 433.922 115.963 433.361 113.889C433.049 112.926 432.894 111.593 432.894 109.889C432.894 108.185 433.018 106.815 433.268 105.778C433.579 104.741 434.046 104 434.67 103.556Z" fill="white"/>
<path d="M160.867 54.6889C160.867 49.3556 162.438 44.9556 165.578 41.4889C168.719 38.0222 172.308 36.2889 176.346 36.2889C180.384 36.2889 183.955 38.0222 187.058 41.4889C190.162 44.9111 191.713 49.2889 191.713 54.6222C191.713 58.3111 190.909 61.6 189.302 64.4889C187.694 67.3333 185.731 69.4444 183.413 70.8222C181.132 72.1556 178.758 72.8222 176.29 72.8222C173.823 72.8222 171.43 72.1111 169.112 70.6889C166.794 69.2222 164.831 67.0889 163.223 64.2889C161.653 61.4444 160.867 58.2444 160.867 54.6889ZM172.589 59.4889C173.785 60.5556 175 61.0889 176.234 61.0889C177.468 61.0889 178.702 60.5333 179.936 59.4222C181.17 58.3111 181.787 56.6667 181.787 54.4889C181.787 52.3111 181.207 50.6889 180.048 49.6222C178.889 48.5556 177.636 48.0222 176.29 48.0222C174.944 48.0222 173.692 48.5778 172.533 49.6889C171.374 50.8 170.794 52.4444 170.794 54.6222C170.794 56.7556 171.392 58.3778 172.589 59.4889Z" fill="white"/>
<path d="M204.591 54.6889C204.591 56.5556 205.114 58.0222 206.161 59.0889C207.208 60.1111 208.311 60.6222 209.47 60.6222C210.666 60.6222 211.769 60.2222 212.779 59.4222C213.826 58.5778 214.667 58.1556 215.303 58.1556C216.424 58.1556 217.789 59.3333 219.397 61.6889C220.257 62.9778 220.687 64.1333 220.687 65.1556C220.687 66.8444 219.658 68.4222 217.602 69.8889C215.471 71.6667 212.854 72.5556 209.75 72.5556C206.273 72.5556 202.927 71.0667 199.711 68.0889C198.178 66.6667 196.926 64.7778 195.954 62.4222C194.982 60.0222 194.496 57.4 194.496 54.5556C194.496 51.6667 194.982 49.0667 195.954 46.7556C196.926 44.4 198.178 42.5111 199.711 41.0889C202.815 38.1556 206.124 36.6889 209.638 36.6889C211.059 36.6889 212.442 36.9333 213.788 37.4222C215.134 37.8667 216.125 38.3111 216.761 38.7556L217.658 39.4222C218.331 39.9556 218.854 40.3778 219.228 40.6889C220.2 41.5778 220.687 42.6 220.687 43.7556C220.687 44.8667 220.294 46.1333 219.509 47.5556C218.163 50 216.873 51.2222 215.639 51.2222C214.929 51.2222 213.919 50.7333 212.611 49.7556C211.938 49 210.965 48.6222 209.694 48.6222C208.46 48.6222 207.301 49.1556 206.217 50.2222C205.133 51.2889 204.591 52.7778 204.591 54.6889Z" fill="white"/>
<path d="M243.49 40.8222C243.714 38.3333 245.191 37.0889 247.921 37.0889C249.379 37.0889 250.463 37.2222 251.174 37.4889C251.884 37.7556 252.37 38.2222 252.632 38.8889C252.931 39.5556 253.099 40.1556 253.136 40.6889C253.211 41.1778 253.249 41.9333 253.249 42.9556V66.2889C253.249 67.3111 253.211 68.0889 253.136 68.6222C253.099 69.1111 252.95 69.6889 252.688 70.3556C252.164 71.5111 250.874 72.0889 248.818 72.0889C246.799 72.0889 245.434 71.8 244.724 71.2222C244.051 70.6 243.658 69.7111 243.546 68.5556C242.163 70.9111 239.845 72.0889 236.592 72.0889C233.376 72.0889 230.385 70.3333 227.619 66.8222C224.852 63.3111 223.468 59.2444 223.468 54.6222C223.468 49.9556 224.852 45.8889 227.619 42.4222C230.423 38.9111 233.489 37.1556 236.816 37.1556C238.087 37.1556 239.246 37.4222 240.293 37.9556C241.34 38.4889 242.069 39 242.481 39.4889C242.892 39.9333 243.228 40.3778 243.49 40.8222ZM233.283 54.6889C233.283 56.1556 233.769 57.4889 234.741 58.6889C235.713 59.8444 236.891 60.4222 238.274 60.4222C239.658 60.4222 240.798 59.8222 241.695 58.6222C242.63 57.4222 243.098 56.1111 243.098 54.6889C243.098 53.2222 242.649 51.8667 241.752 50.6222C240.892 49.3778 239.714 48.7556 238.218 48.7556C236.76 48.7556 235.564 49.3778 234.629 50.6222C233.732 51.8667 233.283 53.2222 233.283 54.6889Z" fill="white"/>
<path d="M277.797 37.4889C278.507 37.7556 279.086 38.2222 279.535 38.8889C280.021 39.5111 280.264 40.5333 280.264 41.9556C280.264 43.3778 279.909 44.9333 279.199 46.6222C278.488 48.3111 277.46 49.1556 276.114 49.1556C275.441 49.1556 274.787 48.9778 274.151 48.6222C273.553 48.2667 272.749 48.0889 271.74 48.0889C270.73 48.0889 269.777 48.5111 268.879 49.3556C268.019 50.2 267.589 51.2222 267.589 52.4222V66.4222C267.589 67.4444 267.552 68.2222 267.477 68.7556C267.44 69.2444 267.272 69.8222 266.972 70.4889C266.412 71.6444 264.953 72.2222 262.598 72.2222C260.803 72.2222 259.513 71.8444 258.728 71.0889C258.13 70.4667 257.793 69.5111 257.719 68.2222C257.719 67.7778 257.719 67.1333 257.719 66.2889V42.8889C257.719 41.8667 257.737 41.1111 257.775 40.6222C257.85 40.0889 258.018 39.5111 258.279 38.8889C258.803 37.6889 260.261 37.0889 262.654 37.0889C264.897 37.0889 266.299 37.6 266.86 38.6222C267.272 39.3333 267.477 40.0667 267.477 40.8222C267.664 40.5111 267.926 40.1333 268.262 39.6889C268.636 39.2444 269.403 38.6444 270.562 37.8889C271.721 37.1333 272.73 36.7556 273.59 36.7556C274.488 36.7556 275.235 36.8222 275.834 36.9556C276.432 37.0444 277.086 37.2222 277.797 37.4889Z" fill="white"/>
<path d="M283.351 42.9556C283.351 41.9333 283.369 41.1778 283.407 40.6889C283.481 40.1556 283.65 39.5556 283.911 38.8889C284.435 37.7333 285.893 37.1556 288.286 37.1556C290.081 37.1556 291.352 37.5333 292.1 38.2889C292.735 38.9111 293.072 39.8667 293.109 41.1556C293.146 41.6 293.165 42.2444 293.165 43.0889V66.4222C293.165 67.4444 293.128 68.2222 293.053 68.7556C293.016 69.2444 292.847 69.8222 292.548 70.4889C292.062 71.6444 290.623 72.2222 288.23 72.2222C285.874 72.2222 284.435 71.6222 283.911 70.4222C283.65 69.7556 283.481 69.1778 283.407 68.6889C283.369 68.2 283.351 67.4222 283.351 66.3556V42.9556ZM292.548 30.6222C292.286 31.2444 291.8 31.6889 291.09 31.9556C290.38 32.2222 289.426 32.3556 288.23 32.3556C287.071 32.3556 286.136 32.2222 285.426 31.9556C284.715 31.6889 284.21 31.2222 283.911 30.5556C283.65 29.8889 283.481 29.3111 283.407 28.8222C283.369 28.2889 283.351 27.5111 283.351 26.4889C283.351 25.4667 283.369 24.7111 283.407 24.2222C283.481 23.6889 283.65 23.1111 283.911 22.4889C284.435 21.2889 285.893 20.6889 288.286 20.6889C290.641 20.6889 292.062 21.2889 292.548 22.4889C292.847 23.1556 293.016 23.7556 293.053 24.2889C293.128 24.7778 293.165 25.5333 293.165 26.5556C293.165 27.5778 293.128 28.3556 293.053 28.8889C293.016 29.3778 292.847 29.9556 292.548 30.6222Z" fill="white"/>
<path d="M312.395 60.4889H321.985C323.481 60.4889 324.547 60.7111 325.182 61.1556C325.855 61.6 326.304 62.2444 326.528 63.0889C326.752 63.9333 326.865 65.0444 326.865 66.4222C326.865 67.8 326.752 68.9111 326.528 69.7556C326.304 70.6 325.911 71.2 325.35 71.5556C324.79 71.8667 324.285 72.0667 323.836 72.1556C323.425 72.2 322.789 72.2222 321.929 72.2222H301.683C300.375 72.2222 299.234 71.6444 298.262 70.4889C297.29 69.3333 296.804 67.9556 296.804 66.3556C296.804 64.7556 297.29 63.4 298.262 62.2889C299.234 61.1333 300.73 59.4889 302.749 57.3556C304.768 55.2222 306.6 53.3111 308.245 51.6222C309.89 49.8889 310.787 48.9333 310.937 48.7556H303.029C300.898 48.7556 299.552 48.3333 298.991 47.4889C298.356 46.5111 298.038 45.2222 298.038 43.6222C298.038 42.0222 298.131 40.8444 298.318 40.0889C298.505 39.2889 298.729 38.7111 298.991 38.3556C299.253 37.9556 299.627 37.6444 300.113 37.4222C300.748 37.2 301.721 37.0889 303.029 37.0889H321.256C322.565 37.0889 323.705 37.6444 324.677 38.7556C325.65 39.8667 326.136 41.2667 326.136 42.9556C326.136 44.6 325.575 46.0667 324.453 47.3556C323.331 48.6444 319.312 53.0222 312.395 60.4889Z" fill="white"/>
<path d="M17.9467 87.2222C19.1307 90.4815 20.377 92.9259 21.6856 94.5556C23.0565 96.2593 24.334 97.1111 25.5179 97.1111C26.7019 97.1111 27.5432 97.1481 28.0417 97.2222C28.6025 97.2963 29.1945 97.5556 29.8177 98C30.5031 98.4444 30.9705 99.1852 31.2198 100.222C31.5313 101.259 31.6871 102.63 31.6871 104.333C31.6871 106.037 31.5313 107.37 31.2198 108.333C30.9705 109.37 30.5031 110.111 29.8177 110.556C28.7583 111.148 27.3562 111.444 25.6114 111.444C21.374 111.444 17.5416 109.667 14.1143 106.111C10.7493 102.63 8.06978 98.1111 6.0757 92.5556C2.02523 81.1481 0 68.9259 0 55.8889C0 42.9259 1.93176 30.7778 5.79528 19.4444C7.78936 13.6667 10.5001 9 13.9274 5.44445C17.3547 1.81482 21.2805 0 25.7049 0C27.5743 0 28.9141 0.25926 29.7242 0.777781C31.0328 1.74074 31.6871 3.88889 31.6871 7.22222C31.6871 10.7037 31.1263 12.7778 30.0046 13.4444C29.1322 14.037 27.8548 14.3333 26.1723 14.3333H25.6114C23.1811 14.3333 20.6885 17.6296 18.1336 24.2222C16.9496 27.4074 15.9526 31.7778 15.1425 37.3333C14.3947 42.8148 14.0208 48.963 14.0208 55.7778C14.0208 62.5926 14.3947 68.7407 15.1425 74.2222C15.8903 79.7037 16.825 84.037 17.9467 87.2222Z" fill="white"/>
<path d="M109.623 7.77778C110.122 8.88889 110.402 9.88889 110.465 10.7778C110.589 11.6667 110.652 12.963 110.652 14.6667V76.3333C110.652 81.4444 109.468 84.4444 107.1 85.3333C105.916 85.7778 104.42 86 102.613 86C100.806 86 99.3725 85.8148 98.3132 85.4444C97.2538 85.0741 96.4437 84.6296 95.8829 84.1111C95.3221 83.5926 94.8859 82.8519 94.5743 81.8889C94.2627 80.6296 94.1069 78.7037 94.1069 76.1111V38.8889C92.549 41.1852 90.2746 44.8519 87.2834 49.8889C84.2923 54.8519 82.3917 57.963 81.5816 59.2222C80.7715 60.4815 80.2107 61.3704 79.8991 61.8889C79.5875 62.3333 78.8086 63 77.5623 63.8889C76.3783 64.7037 75.0697 65.1111 73.6365 65.1111C72.2656 65.1111 70.9881 64.7407 69.8041 64C68.6824 63.1852 67.8724 62.4074 67.3738 61.6667L66.6261 60.4444C65.3798 58.5926 62.9183 54.6667 59.2417 48.6667C55.5652 42.5926 53.5711 39.3333 53.2595 38.8889V76.3333C53.2595 78.037 53.1972 79.3333 53.0726 80.2222C53.0103 81.037 52.7298 81.963 52.2313 83C51.2966 85 48.8663 86 44.9405 86C41.1393 86 38.7713 85 37.8366 83C37.3381 81.963 37.0265 81 36.9019 80.1111C36.8395 79.2222 36.8084 77.8889 36.8084 76.1111V14.4444C36.8084 12.7407 36.8395 11.4815 36.9019 10.6667C37.0265 9.77778 37.3381 8.77778 37.8366 7.66667C38.7713 5.74074 41.2016 4.77778 45.1274 4.77778C46.8099 4.77778 48.2432 5.03704 49.4271 5.55556C50.6734 6 51.4835 6.48148 51.8574 7L52.4183 7.66667L73.6365 40.7778C84.23 24.1111 91.3028 13.1111 94.8547 7.77778C95.9141 5.77778 98.4066 4.77778 102.332 4.77778C106.321 4.77778 108.751 5.77778 109.623 7.77778Z" fill="white"/>
<path d="M117.579 98C118.265 97.5556 118.857 97.2963 119.355 97.2222C119.916 97.1481 120.789 97.1111 121.973 97.1111C123.157 97.1111 124.403 96.2593 125.712 94.5556C127.082 92.9259 128.36 90.4815 129.544 87.2222C132.161 79.8889 133.47 69.3704 133.47 55.6667C133.47 48.9259 133.065 42.8148 132.255 37.3333C131.507 31.7778 130.541 27.4074 129.357 24.2222C126.802 17.6296 124.309 14.3333 121.879 14.3333H121.318C119.636 14.3333 118.421 14.1111 117.673 13.6667C116.427 12.8519 115.803 10.8148 115.803 7.55556C115.803 4.22222 116.302 2.14815 117.299 1.33334C118.296 0.444445 119.792 0 121.786 0C126.21 0 130.136 1.81482 133.563 5.44445C136.991 9 139.701 13.6667 141.695 19.4444C145.559 30.7778 147.491 42.9259 147.491 55.8889C147.491 68.9259 145.465 81.1481 141.415 92.5556C139.421 98.1111 136.71 102.63 133.283 106.111C129.918 109.667 126.117 111.444 121.879 111.444C118.701 111.444 116.832 110.407 116.271 108.333C115.959 107.37 115.803 106.037 115.803 104.333C115.803 102.63 115.928 101.259 116.177 100.222C116.489 99.1852 116.956 98.4444 117.579 98Z" fill="white"/>
</svg>
