<svg width="1036" height="311" viewBox="0 0 1036 311" fill="none" xmlns="http://www.w3.org/2000/svg">
<path d="M408.612 168.339C408.612 157.073 412.502 147.778 420.28 140.455C428.059 133.131 436.949 129.47 446.95 129.47C456.951 129.47 465.795 133.131 473.481 140.455C481.167 147.684 485.01 156.932 485.01 168.198C485.01 175.991 483.019 182.938 479.037 189.041C475.055 195.05 470.194 199.509 464.452 202.42C458.803 205.237 452.923 206.645 446.811 206.645C440.699 206.645 434.773 205.143 429.031 202.138C423.29 199.04 418.428 194.533 414.446 188.619C410.557 182.61 408.612 175.85 408.612 168.339ZM437.643 178.479C440.607 180.732 443.616 181.859 446.672 181.859C449.728 181.859 452.784 180.685 455.84 178.338C458.896 175.991 460.424 172.517 460.424 167.917C460.424 163.316 458.989 159.889 456.118 157.636C453.247 155.383 450.145 154.256 446.811 154.256C443.477 154.256 440.375 155.43 437.505 157.777C434.634 160.124 433.199 163.598 433.199 168.198C433.199 172.705 434.68 176.132 437.643 178.479ZM516.904 168.339C516.904 172.282 518.2 175.381 520.793 177.634C523.386 179.793 526.118 180.873 528.989 180.873C531.952 180.873 534.684 180.028 537.184 178.338C539.777 176.554 541.86 175.662 543.435 175.662C546.213 175.662 549.593 178.15 553.575 183.126C555.705 185.849 556.77 188.29 556.77 190.449C556.77 194.017 554.223 197.35 549.13 200.448C543.851 204.204 537.369 206.081 529.683 206.081C521.071 206.081 512.783 202.936 504.819 196.646C501.022 193.642 497.92 189.651 495.512 184.675C493.105 179.605 491.901 174.066 491.901 168.057C491.901 161.955 493.105 156.462 495.512 151.58C497.92 146.604 501.022 142.614 504.819 139.61C512.505 133.413 520.701 130.315 529.405 130.315C532.924 130.315 536.351 130.831 539.684 131.864C543.018 132.803 545.472 133.742 547.046 134.681L549.269 136.089C550.936 137.216 552.232 138.107 553.158 138.765C555.566 140.642 556.77 142.802 556.77 145.243C556.77 147.59 555.797 150.266 553.853 153.27C550.519 158.434 547.324 161.016 544.268 161.016C542.509 161.016 540.008 159.983 536.767 157.918C535.1 156.322 532.693 155.523 529.544 155.523C526.488 155.523 523.618 156.65 520.932 158.903C518.247 161.157 516.904 164.302 516.904 168.339ZM613.248 139.046C613.804 133.789 617.462 131.16 624.222 131.16C627.833 131.16 630.519 131.442 632.278 132.005C634.038 132.568 635.242 133.554 635.89 134.962C636.631 136.371 637.047 137.638 637.14 138.765C637.325 139.797 637.418 141.394 637.418 143.553V192.843C637.418 195.003 637.325 196.646 637.14 197.773C637.047 198.805 636.677 200.026 636.029 201.434C634.732 203.875 631.538 205.096 626.444 205.096C621.444 205.096 618.064 204.485 616.304 203.265C614.637 201.95 613.665 200.073 613.387 197.632C609.961 202.608 604.22 205.096 596.163 205.096C588.199 205.096 580.791 201.387 573.939 193.97C567.086 186.553 563.66 177.962 563.66 168.198C563.66 158.34 567.086 149.749 573.939 142.426C580.884 135.009 588.477 131.301 596.719 131.301C599.867 131.301 602.738 131.864 605.331 132.991C607.924 134.117 609.729 135.197 610.748 136.23C611.767 137.169 612.6 138.107 613.248 139.046ZM587.968 168.339C587.968 171.437 589.172 174.254 591.579 176.789C593.987 179.23 596.904 180.45 600.33 180.45C603.757 180.45 606.581 179.183 608.803 176.648C611.119 174.113 612.276 171.343 612.276 168.339C612.276 165.241 611.165 162.377 608.942 159.748C606.812 157.12 603.895 155.805 600.191 155.805C596.58 155.805 593.616 157.12 591.301 159.748C589.079 162.377 587.968 165.241 587.968 168.339ZM698.218 132.005C699.977 132.568 701.413 133.554 702.524 134.962C703.728 136.277 704.33 138.436 704.33 141.44C704.33 144.445 703.45 147.731 701.69 151.299C699.931 154.866 697.384 156.65 694.051 156.65C692.384 156.65 690.763 156.275 689.189 155.523C687.707 154.772 685.716 154.397 683.216 154.397C680.716 154.397 678.354 155.289 676.132 157.073C674.002 158.856 672.937 161.016 672.937 163.551V193.125C672.937 195.285 672.844 196.928 672.659 198.054C672.567 199.087 672.15 200.307 671.409 201.716C670.02 204.157 666.409 205.377 660.575 205.377C656.13 205.377 652.935 204.579 650.99 202.983C649.508 201.669 648.675 199.65 648.49 196.928C648.49 195.989 648.49 194.627 648.49 192.843V143.412C648.49 141.253 648.536 139.657 648.629 138.624C648.814 137.497 649.231 136.277 649.879 134.962C651.175 132.427 654.787 131.16 660.713 131.16C666.27 131.16 669.742 132.24 671.131 134.399C672.15 135.901 672.659 137.45 672.659 139.046C673.122 138.389 673.77 137.591 674.604 136.652C675.53 135.713 677.428 134.446 680.299 132.85C683.17 131.254 685.67 130.456 687.8 130.456C690.022 130.456 691.874 130.597 693.356 130.878C694.838 131.066 696.458 131.442 698.218 132.005ZM711.975 143.553C711.975 141.394 712.021 139.797 712.114 138.765C712.299 137.638 712.716 136.371 713.364 134.962C714.661 132.521 718.272 131.301 724.199 131.301C728.644 131.301 731.792 132.099 733.644 133.695C735.219 135.009 736.052 137.028 736.145 139.75C736.237 140.689 736.284 142.051 736.284 143.835V193.125C736.284 195.285 736.191 196.928 736.006 198.054C735.913 199.087 735.496 200.307 734.756 201.716C733.552 204.157 729.986 205.377 724.06 205.377C718.226 205.377 714.661 204.11 713.364 201.575C712.716 200.167 712.299 198.946 712.114 197.913C712.021 196.881 711.975 195.238 711.975 192.984V143.553ZM734.756 117.499C734.107 118.814 732.904 119.753 731.144 120.316C729.385 120.879 727.023 121.161 724.06 121.161C721.189 121.161 718.874 120.879 717.115 120.316C715.355 119.753 714.105 118.767 713.364 117.358C712.716 115.95 712.299 114.73 712.114 113.697C712.021 112.57 711.975 110.927 711.975 108.768C711.975 106.608 712.021 105.012 712.114 103.98C712.299 102.853 712.716 101.632 713.364 100.318C714.661 97.7831 718.272 96.5156 724.199 96.5156C730.033 96.5156 733.552 97.7831 734.756 100.318C735.496 101.726 735.913 102.994 736.006 104.12C736.191 105.153 736.284 106.749 736.284 108.909C736.284 111.068 736.191 112.711 736.006 113.838C735.913 114.87 735.496 116.091 734.756 117.499ZM783.911 180.591H807.663C811.368 180.591 814.007 181.061 815.581 182C817.248 182.938 818.359 184.3 818.915 186.084C819.47 187.867 819.748 190.215 819.748 193.125C819.748 196.036 819.47 198.383 818.915 200.167C818.359 201.95 817.387 203.218 815.998 203.969C814.609 204.626 813.358 205.049 812.247 205.237C811.229 205.33 809.654 205.377 807.524 205.377H757.38C754.139 205.377 751.314 204.157 748.907 201.716C746.499 199.275 745.295 196.364 745.295 192.984C745.295 189.604 746.499 186.741 748.907 184.394C751.314 181.953 755.018 178.479 760.019 173.972C765.019 169.466 769.557 165.429 773.632 161.861C777.706 158.199 779.929 156.181 780.299 155.805H760.713C755.435 155.805 752.101 154.913 750.712 153.129C749.138 151.064 748.351 148.341 748.351 144.961C748.351 141.581 748.582 139.093 749.045 137.497C749.508 135.807 750.064 134.587 750.712 133.836C751.36 132.991 752.287 132.333 753.49 131.864C755.065 131.395 757.472 131.16 760.713 131.16H805.858C809.099 131.16 811.923 132.333 814.331 134.681C816.738 137.028 817.942 139.985 817.942 143.553C817.942 147.027 816.553 150.125 813.775 152.848C810.997 155.57 801.042 164.818 783.911 180.591Z" fill="#581F6E"/>
<path d="M51.3949 231.196C54.3273 238.081 57.4141 243.245 60.6552 246.688C64.0508 250.286 67.2144 252.086 70.147 252.086C73.0797 252.086 75.1632 252.164 76.3978 252.321C77.7868 252.477 79.2528 253.025 80.7964 253.964C82.494 254.903 83.6515 256.468 84.2691 258.658C85.0406 260.849 85.4266 263.744 85.4266 267.343C85.4266 270.941 85.0406 273.758 84.2691 275.792C83.6515 277.983 82.494 279.548 80.7964 280.487C78.1729 281.738 74.7002 282.365 70.3786 282.365C59.8837 282.365 50.3917 278.609 41.903 271.098C33.5687 263.744 26.9321 254.199 21.9933 242.463C11.9613 218.365 6.94525 192.546 6.94525 165.006C6.94525 137.622 11.7298 111.96 21.2988 88.0189C26.2376 75.8136 32.9513 65.9555 41.44 58.4445C49.9287 50.7771 59.6522 46.9434 70.6101 46.9434C75.2402 46.9434 78.5583 47.491 80.5649 48.5864C83.806 50.6206 85.4266 55.1585 85.4266 62.2C85.4266 69.5543 84.0375 73.9358 81.2594 75.3442C79.0989 76.5958 75.9348 77.2219 71.7676 77.2219H70.3786C64.3593 77.2219 58.1856 84.1853 51.8579 98.1117C48.9254 104.84 46.456 114.072 44.4496 125.808C42.5975 137.387 41.6715 150.376 41.6715 164.771C41.6715 179.167 42.5975 192.155 44.4496 203.734C46.3017 215.314 48.6168 224.468 51.3949 231.196ZM278.456 63.3736C279.69 65.7208 280.385 67.8332 280.54 69.7109C280.848 71.5887 281.003 74.3272 281.003 77.926V208.194C281.003 218.991 278.07 225.328 272.205 227.206C269.273 228.145 265.568 228.614 261.093 228.614C256.617 228.614 253.067 228.223 250.443 227.441C247.819 226.659 245.813 225.72 244.424 224.624C243.035 223.529 241.955 221.964 241.183 219.93C240.411 217.27 240.026 213.201 240.026 207.725V129.094C236.167 133.945 230.534 141.691 223.125 152.331C215.717 162.816 211.009 169.388 209.003 172.048C206.997 174.707 205.608 176.585 204.836 177.681C204.064 178.62 202.135 180.028 199.049 181.906C196.116 183.627 192.875 184.488 189.325 184.488C185.93 184.488 182.765 183.705 179.833 182.14C177.055 180.419 175.049 178.776 173.814 177.211L171.962 174.629C168.875 170.717 162.779 162.424 153.673 149.749C144.567 136.918 139.628 130.033 138.856 129.094V208.194C138.856 211.793 138.702 214.531 138.393 216.409C138.239 218.13 137.544 220.087 136.31 222.277C133.995 226.502 127.976 228.614 118.252 228.614C108.837 228.614 102.973 226.502 100.658 222.277C99.4224 220.087 98.6509 218.052 98.3424 216.174C98.1879 214.297 98.1109 211.48 98.1109 207.725V77.4566C98.1109 73.8578 98.1879 71.1973 98.3424 69.4762C98.6509 67.5985 99.4224 65.486 100.658 63.1389C102.973 59.0706 108.992 57.0362 118.715 57.0362C122.882 57.0362 126.432 57.5839 129.365 58.6792C132.451 59.6181 134.458 60.635 135.384 61.7306L136.773 63.1389L189.325 133.085C215.563 97.877 233.08 74.64 241.878 63.3736C244.501 59.1487 250.675 57.0362 260.398 57.0362C270.276 57.0362 276.295 59.1487 278.456 63.3736ZM298.161 253.964C299.859 253.025 301.325 252.477 302.56 252.321C303.949 252.164 306.11 252.086 309.042 252.086C311.974 252.086 315.061 250.286 318.303 246.688C321.698 243.245 324.862 238.081 327.794 231.196C334.277 215.705 337.518 193.485 337.518 164.537C337.518 150.297 336.514 137.387 334.508 125.808C332.656 114.072 330.264 104.84 327.331 98.1117C321.003 84.1853 314.83 77.2219 308.811 77.2219H307.422C303.255 77.2219 300.245 76.7525 298.393 75.8136C295.306 74.0925 293.763 69.789 293.763 62.9041C293.763 55.8626 294.997 51.4812 297.467 49.76C299.936 47.8823 303.64 46.9434 308.579 46.9434C319.537 46.9434 329.26 50.7771 337.749 58.4445C346.238 65.9555 352.951 75.8136 357.891 88.0189C367.459 111.96 372.244 137.622 372.244 165.006C372.244 192.546 367.228 218.365 357.196 242.463C352.257 254.199 345.543 263.744 337.055 271.098C328.721 278.609 319.306 282.365 308.811 282.365C300.939 282.365 296.309 280.174 294.92 275.792C294.148 273.758 293.763 270.941 293.763 267.343C293.763 263.744 294.071 260.849 294.689 258.658C295.46 256.468 296.618 254.903 298.161 253.964Z" fill="#581F6E"/>
</svg>
